HIERARCHY
ROOT ui
{
	 OFFSET 0 0 0
	 CHANNELS 3 XPosition YPosition Z Position
	 EndSite
	 {
	 OFFSET 0 -1 0
	 }
}
ROOT li
{
	 OFFSET 0 0 0
	 CHANNELS 3 XPosition YPosition Z Position
	 EndSite
	 {
	 OFFSET 0 -1 0
	 }
}
ROOT ul
{
	 OFFSET 0 0 0
	 CHANNELS 3 XPosition YPosition Z Position
	 EndSite
	 {
	 OFFSET 0 -1 0
	 }
}
ROOT ll
{
	 OFFSET 0 0 0
	 CHANNELS 3 XPosition YPosition Z Position
	 EndSite
	 {
	 OFFSET 0 -1 0
	 }
}
ROOT tt
{
	 OFFSET 0 0 0
	 CHANNELS 3 XPosition YPosition Z Position
	 EndSite
	 {
	 OFFSET 0 -1 0
	 }
}
ROOT tb
{
	 OFFSET 0 0 0
	 CHANNELS 3 XPosition YPosition Z Position
	 EndSite
	 {
	 OFFSET 0 -1 0
	 }
}
ROOT td
{
	 OFFSET 0 0 0
	 CHANNELS 3 XPosition YPosition Z Position
	 EndSite
	 {
	 OFFSET 0 -1 0
	 }
}
ROOT v
{
	 OFFSET 0 0 0
	 CHANNELS 3 XPosition YPosition Z Position
	 EndSite
	 {
	 OFFSET 0 -1 0
	 }
}
ROOT bn
{
	 OFFSET 0 0 0
	 CHANNELS 3 XPosition YPosition Z Position
	 EndSite
	 {
	 OFFSET 0 -1 0
	 }
}
MOTION
Frames: 27
Frame Time: 0.002
5.359209775924683E-4	5.207570195198059E-4	0		0.5856856689453125	-2.512638671875	0		-1.04125537109375	0.12325596618652344	0		-0.5297505493164063	-2.452148193359375	0		1.3721932373046875	-0.8166483154296875	0		2.90748681640625	-0.2134272918701172	0		4.2744501953125	0.2615204772949219	0		5.93618017578125	0.4939182434082031	0		-0.4044002380371094	5.83500048828125	0		
4.32112991809845E-4	2.9935801029205324E-4	0		0.61143408203125	-2.516155517578125	0		-1.041353515625	0.12308237457275391	0		-0.569778564453125	-2.4339326171875	0		1.3661142578125	-0.8108709106445312	0		2.89947705078125	-0.20369987487792968	0		4.28755419921875	0.2799674377441406	0		5.93120361328125	0.5139440307617188	0		-0.40423629760742186	5.83479736328125	0		
-0.0036990408897399902	-0.0028654849529266358	0		0.5852552490234375	-2.513119140625	0		-1.0395418701171875	0.11390155029296875	0		-0.5299780883789063	-2.433529541015625	0		1.3690196533203125	-0.807169189453125	0		2.910595703125	-0.18214996337890624	0		4.30339306640625	0.2724056396484375	0		5.936037109375	0.492244873046875	0		-0.4099122009277344	5.85067041015625	0		
2.3649300634860992E-4	-9.903199970722199E-5	0		0.5870767211914063	-2.511356201171875	0		-1.03056005859375	0.12065843963623046	0		-0.5909934692382812	-2.41606396484375	0		1.3769947509765625	-0.7975015869140625	0		2.919554931640625	-0.17655625915527343	0		4.3011630859375	0.2580576171875	0		5.93106640625	0.5123701171875	0		-0.3936728515625	5.859328125	0		
0.0031785390377044678	0.002692389965057373	0		0.5939872436523438	-2.50262890625	0		-1.030644775390625	0.12052005767822266	0		-0.5450919799804688	-2.408700927734375	0		1.3949583740234375	-0.7899190063476562	0		2.957927978515625	-0.1322428741455078	0		4.31933349609375	0.2815297241210937	0		5.938849609375	0.5114769592285157	0		-0.3794281005859375	5.8700185546875	0		
0.003097059965133667	0.002530167102813721	0		0.5828976440429687	-2.495695556640625	0		-1.030722412109375	0.12039178466796875	0		-0.6000186157226562	-2.386268798828125	0		1.3909560546875	-0.7800855102539063	0		2.942843017578125	-0.13234463500976562	0		4.32534521484375	0.2891623229980469	0		5.92801953125	0.49382952880859377	0		-0.3944210510253906	5.86002685546875	0		
-7.294000126421451E-6	-5.856850147247315E-4	0		0.580734619140625	-2.497837890625	0		-1.0417703857421876	0.12238847351074218	0		-0.5751063842773437	-2.3816630859375	0		1.39996630859375	-0.7703668212890625	0		2.958933837890625	-0.11674289703369141	0		4.3561201171875	0.2735696105957031	0		5.92433447265625	0.4778101806640625	0		-0.3943319396972656	5.859890625	0		
-0.004102674961090088	-0.0036768240928649904	0		0.5905198364257812	-2.50708935546875	0		-1.0418316650390624	0.12227806091308593	0		-0.611189453125	-2.378404296875	0		1.4169581298828124	-0.7637111206054688	0		2.964088623046875	-0.09599591827392578	0		4.35912548828125	0.27930755615234376	0		5.9242890625	0.47735018920898437	0		-0.4093706359863281	5.84992431640625	0		
-1.2560899555683137E-4	-8.391799926757812E-4	0		0.556573974609375	-2.492860595703125	0		-1.0418839111328124	0.12217523193359375	0		-0.615124267578125	-2.363472900390625	0		1.4439425048828125	-0.7591400146484375	0		3.002210205078125	-0.07956719970703124	0		4.37820166015625	0.290914306640625	0		5.93501708984375	0.49226736450195313	0		-0.4292746887207031	5.8550224609375	0		
-1.6950300335884095E-4	-9.457399845123291E-4	0		0.5414622192382812	-2.496814208984375	0		-1.114880126953125	0.12685160827636718	0		-0.6341815795898438	-2.362371826171875	0		1.4641539306640625	-0.7344747924804688	0		2.996229248046875	-0.0736424560546875	0		4.3930859375	0.28360308837890624	0		5.93135205078125	0.47649560546875	0		-0.3951949462890625	5.86056005859375	0		
0.002829755067825317	0.001929481029510498	0		0.5844478759765624	-2.49436474609375	0		-1.047905029296875	0.12705479431152344	0		-0.6091625366210938	-2.356726806640625	0		1.482201904296875	-0.7267651977539062	0		3.037427001953125	-0.052184009552001955	0		4.40319189453125	0.29638372802734375	0		5.9131474609375	0.5597992553710938	0		-0.3762546081542969	5.8552685546875	0		
-2.2154000401496888E-4	-0.0011174219846725464	0		0.5465294799804687	-2.485041015625	0		-1.0479249267578126	0.12697430419921876	0		-0.6279763793945312	-2.337606689453125	0		1.5312652587890625	-0.7193605346679688	0		3.034449951171875	-0.048226451873779295	0		4.42808544921875	0.2880479125976563	0		5.92935595703125	0.51774072265625	0		-0.41132406616210937	5.8515595703125	0		
-2.278749942779541E-4	-0.0011818469762802123	0		0.5824238891601563	-2.496481201171875	0		-1.053879150390625	0.13196499633789063	0		-0.6299964599609374	-2.340654541015625	0		1.546453857421875	-0.7015728149414062	0		3.052485107421875	-0.044458141326904295	0		4.43214013671875	0.29397479248046876	0		5.926408203125	0.4970228576660156	0		-0.411375244140625	5.8514921875	0		
-2.2017499804496764E-4	-0.0012314510345458984	0		0.5325421142578125	-2.488995361328125	0		-1.04388427734375	0.13079557800292968	0		-0.660870849609375	-2.3323857421875	0		1.573532958984375	-0.6958868408203125	0		3.073513427734375	-0.04268820571899414	0		4.45113232421875	0.2927846984863281	0		5.92641357421875	0.4970771484375	0		-0.40946810913085935	5.849416015625	0		
0.002833620071411133	0.0017026150226593017	0		0.5896301879882813	-2.4876201171875	0		-1.043864501953125	0.13074137878417968	0		-0.6167428588867188	-2.326896728515625	0		1.602798828125	-0.6741976318359375	0		3.11681884765625	-0.016117984771728516	0		4.47420068359375	0.2975934143066406	0		5.925880859375	0.5352928466796875	0		-0.36039230346679685	5.8648564453125	0		
0.0028709580898284913	0.0016847020387649536	0		0.5617300415039063	-2.487329345703125	0		-1.0557244873046876	0.14082347106933593	0		-0.61866943359375	-2.32890869140625	0		1.6150098876953125	-0.6593034057617188	0		3.107783447265625	-0.022964635848999024	0		4.49116650390625	0.29150656127929686	0		5.92379638671875	0.5424889526367187	0		-0.37857110595703125	5.85801953125	0		
-1.0794699937105179E-4	-0.0012848529815673829	0		0.5847800903320313	-2.494554931640625	0		-1.0597178955078126	0.1368336944580078	0		-0.61854931640625	-2.328927978515625	0		1.6333216552734375	-0.63644775390625	0		3.120961669921875	-0.011012560844421386	0		4.5012099609375	0.29153094482421876	0		5.9167080078125	0.5446982421875	0		-0.42586459350585937	5.8415009765625	0		
-4.085199907422066E-5	-0.001268983006477356	0		0.5589614868164062	-2.491248291015625	0		-1.0596552734375	0.1368148956298828	0		-0.6293218994140625	-2.320817626953125	0		1.657575439453125	-0.6206301879882813	0		3.14705908203125	-0.008166538238525391	0		4.51225634765625	0.29057913208007813	0		5.92024560546875	0.527673583984375	0		-0.42697811889648435	5.84251318359375	0		
4.021000117063523E-5	-0.0012354769706726075	0		0.5850980224609375	-2.4944658203125	0		-1.0555377197265625	0.14076901245117188	0		-0.6861452026367187	-2.319212646484375	0		1.65706396484375	-0.5835296020507813	0		3.15837939453125	0.014862516403198241	0		4.5283056640625	0.28860577392578124	0		5.9133115234375	0.5611453247070313	0		-0.41200051879882815	5.85237451171875	0		
0.0031654789447784423	0.0017850849628448487	0		0.5363914184570312	-2.483884033203125	0		-1.05544873046875	0.14078164672851562	0		-0.6099688720703125	-2.319975341796875	0		1.735341796875	-0.5682266845703124	0		3.208356201171875	0.003513329029083252	0		4.5585224609375	0.3015138244628906	0		5.92764111328125	0.5612588500976563	0		-0.4262372436523437	5.84155712890625	0		
-0.00470687198638916	0.003938824892044068	0		0.577600830078125	-2.483216796875	0		-1.067243408203125	0.15093600463867188	0		-0.6477718505859374	-2.319534423828125	0		1.698833984375	-0.5327088012695312	0		3.22069970703125	0.026581186294555664	0		4.5676064453125	0.3006654357910156	0		5.9240751953125	0.5445658569335937	0		-0.42734274291992186	5.8426220703125	0		
3.592830002307892E-4	-0.0010220390558242799	0		0.559732421875	-2.490918212890625	0		-1.067131103515625	0.15098574829101563	0		-0.6115978393554687	-2.322839599609375	0		1.746186279296875	-0.5120386352539062	0		3.251784423828125	0.023475683212280274	0		4.59771142578125	0.30062158203125	0		5.92415771484375	0.54511767578125	0		-0.4415607604980469	5.83184130859375	0		
4.8824200034141543E-4	-9.117900133132935E-4	0		0.5739957885742187	-2.4869306640625	0		-1.0720487060546875	0.14710720825195311	0		-0.6962534790039062	-2.30988037109375	0		1.7494678955078125	-0.4988939208984375	0		3.245015380859375	0.03378012466430664	0		4.6027568359375	0.2938545837402344	0		5.92424755859375	0.54569873046875	0		-0.44165219116210935	5.83193505859375	0		
6.275349855422974E-4	-7.81902015209198E-4	0		0.5342083740234375	-2.488370361328125	0		-1.071914794921875	0.14719754028320312	0		-0.6131766357421875	-2.32462451171875	0		1.781889892578125	-0.47302825927734377	0		3.292079345703125	0.026549209594726564	0		4.6257919921875	0.2849193420410156	0		5.927984375	0.563514892578125	0		-0.4246572265625	5.8388740234375	0		
0.0038070049285888674	0.002336956977844238	0		0.5395171508789063	-2.481253173828125	0		-1.06673046875	0.15125773620605468	0		-0.657983154296875	-2.328037841796875	0		1.8083907470703124	-0.4400819396972656	0		3.29757373046875	0.06076338958740234	0		4.64711328125	0.303018798828125	0		5.9280888671875	0.5641422119140626	0		-0.39065692138671876	5.84466162109375	0		
9.344429969787598E-4	-4.629240036010742E-4	0		0.587655517578125	-2.491552490234375	0		-1.0835159912109376	0.15756312561035157	0		-0.6106874389648438	-2.32236865234375	0		1.8318570556640625	-0.4110860900878906	0		3.316657470703125	0.05385250473022461	0		4.65520947265625	0.29826556396484377	0		5.92456103515625	0.5475765380859375	0		-0.4067788391113281	5.83698046875	0		
0.0010997129678726196	-2.7380499243736265E-4	0		0.5868804931640625	-2.493334228515625	0		-1.0833558349609376	0.1577174530029297	0		-0.6045695190429687	-2.334259521484375	0		1.842156494140625	-0.39894012451171873	0		3.3329921875	0.07098507690429688	0		4.6702939453125	0.29145245361328126	0		5.93531103515625	0.532403076171875	0		-0.44085983276367186	5.83150146484375	0		
